<svg xmlns="http://www.w3.org/2000/svg" xmlns:xlink="http://www.w3.org/1999/xlink" width="500" zoomAndPan="magnify" viewBox="0 0 375 374.999991" height="500" preserveAspectRatio="xMidYMid meet" version="1.0"><defs><clipPath id="id1"><path d="M 28.457031 7.167969 L 346.457031 7.167969 L 346.457031 367.917969 L 28.457031 367.917969 Z M 28.457031 7.167969 " clip-rule="nonzero"/></clipPath></defs><g clip-path="url(#id1)"><path fill="#001423" d="M 299.523438 231.625 C 305.644531 283.132812 275.433594 339.796875 209.636719 362.578125 C 195.382812 366.113281 180.914062 367.875 166.226562 367.859375 C 90.941406 367.859375 29.554688 307.136719 28.457031 232.0625 C 28.621094 227.191406 29.0625 222.507812 29.671875 218.0625 C 33.121094 192.5 43.710938 166.152344 59.480469 143.9375 C 70.167969 128.878906 82.699219 116.632812 94.519531 109.386719 L 94.519531 230.015625 C 94.519531 231.191406 94.550781 232.363281 94.605469 233.539062 C 94.664062 234.710938 94.75 235.882812 94.867188 237.050781 C 94.984375 238.21875 95.125 239.382812 95.300781 240.546875 C 95.472656 241.707031 95.671875 242.863281 95.902344 244.015625 C 96.132812 245.167969 96.386719 246.3125 96.671875 247.449219 C 96.960938 248.589844 97.273438 249.722656 97.613281 250.84375 C 97.953125 251.96875 98.324219 253.082031 98.71875 254.1875 C 99.113281 255.292969 99.535156 256.390625 99.984375 257.476562 C 100.433594 258.558594 100.910156 259.632812 101.410156 260.695312 C 101.914062 261.757812 102.441406 262.804688 102.992188 263.839844 C 103.546875 264.875 104.125 265.898438 104.730469 266.90625 C 105.332031 267.910156 105.960938 268.902344 106.613281 269.878906 C 107.265625 270.855469 107.9375 271.816406 108.636719 272.761719 C 109.335938 273.703125 110.058594 274.628906 110.804688 275.535156 C 111.546875 276.445312 112.3125 277.332031 113.101562 278.203125 C 113.890625 279.074219 114.699219 279.925781 115.527344 280.753906 C 116.359375 281.585938 117.207031 282.394531 118.078125 283.183594 C 118.945312 283.972656 119.835938 284.742188 120.742188 285.484375 C 121.648438 286.230469 122.574219 286.953125 123.515625 287.652344 C 124.457031 288.355469 125.417969 289.03125 126.394531 289.683594 C 127.367188 290.335938 128.359375 290.964844 129.367188 291.570312 C 130.371094 292.171875 131.394531 292.753906 132.425781 293.304688 C 133.460938 293.859375 134.511719 294.390625 135.570312 294.890625 C 136.632812 295.394531 137.703125 295.871094 138.789062 296.320312 C 139.871094 296.769531 140.964844 297.195312 142.070312 297.589844 C 143.175781 297.988281 144.289062 298.355469 145.414062 298.699219 C 146.535156 299.039062 147.667969 299.351562 148.804688 299.640625 C 149.941406 299.925781 151.085938 300.183594 152.238281 300.414062 C 153.390625 300.644531 154.546875 300.847656 155.707031 301.019531 C 156.867188 301.191406 158.03125 301.335938 159.199219 301.453125 C 160.367188 301.570312 161.535156 301.65625 162.710938 301.714844 C 163.882812 301.773438 165.054688 301.804688 166.226562 301.804688 C 168.226562 301.804688 170.222656 301.753906 172.21875 301.648438 C 174.214844 301.546875 176.207031 301.386719 178.195312 301.179688 C 180.183594 300.96875 182.164062 300.707031 184.140625 300.394531 C 186.113281 300.082031 188.078125 299.71875 190.03125 299.300781 C 191.988281 298.882812 193.929688 298.417969 195.859375 297.898438 C 197.792969 297.378906 199.707031 296.808594 201.609375 296.191406 C 203.507812 295.570312 205.390625 294.902344 207.257812 294.183594 C 209.121094 293.464844 210.96875 292.699219 212.792969 291.882812 C 214.617188 291.070312 216.421875 290.207031 218.199219 289.296875 C 219.980469 288.386719 221.734375 287.429688 223.464844 286.425781 C 225.195312 285.425781 226.898438 284.378906 228.570312 283.285156 C 230.246094 282.195312 231.890625 281.058594 233.507812 279.882812 C 235.121094 278.703125 236.703125 277.484375 238.253906 276.222656 C 239.804688 274.960938 241.324219 273.660156 242.804688 272.316406 C 244.289062 270.976562 245.734375 269.597656 247.144531 268.179688 C 248.554688 266.761719 249.929688 265.308594 251.261719 263.820312 C 252.597656 262.332031 253.890625 260.808594 255.144531 259.25 C 256.398438 257.695312 257.609375 256.105469 258.78125 254.484375 C 259.953125 252.863281 261.078125 251.210938 262.164062 249.53125 C 263.246094 247.851562 264.285156 246.144531 265.28125 244.410156 C 266.277344 242.675781 267.222656 240.914062 268.125 239.128906 C 269.027344 237.34375 269.882812 235.539062 270.6875 233.707031 C 271.496094 231.878906 272.253906 230.027344 272.964844 228.160156 C 273.675781 226.289062 274.335938 224.402344 274.945312 222.5 C 275.554688 220.59375 276.117188 218.675781 276.628906 216.742188 C 277.136719 214.808594 277.597656 212.863281 278.003906 210.90625 C 278.414062 208.949219 278.769531 206.980469 279.074219 205.003906 C 279.378906 203.027344 279.628906 201.042969 279.832031 199.054688 C 280.03125 197.066406 280.179688 195.070312 280.277344 193.074219 C 280.371094 191.074219 280.414062 189.078125 280.40625 187.078125 C 280.398438 185.078125 280.335938 183.078125 280.222656 181.082031 C 280.105469 179.085938 279.941406 177.09375 279.722656 175.105469 C 289.90625 192.816406 297.21875 212.21875 299.523438 231.625 Z M 346.457031 187.546875 C 346.457031 88.113281 265.609375 7.226562 166.226562 7.226562 L 28.457031 7.226562 L 28.457031 132.8125 C 30.0625 130.324219 31.722656 127.855469 33.445312 125.445312 C 51.132812 100.53125 73.117188 81.90625 93.746094 74.359375 L 177.550781 73.390625 C 213.59375 73.390625 249.703125 90.433594 279.242188 121.394531 C 306.816406 150.304688 325.730469 188.855469 331.125 227.175781 C 332.523438 236.992188 333.019531 246.855469 332.617188 256.765625 C 337.195312 245.804688 340.648438 234.496094 342.976562 222.84375 C 345.308594 211.195312 346.464844 199.429688 346.457031 187.546875 Z M 346.457031 187.546875 " fill-opacity="1" fill-rule="nonzero"/></g></svg>