<?xml version="1.0" encoding="UTF-8"?>
<svg width="170px" height="78px" viewBox="0 0 170 78" version="1.1" xmlns="http://www.w3.org/2000/svg" xmlns:xlink="http://www.w3.org/1999/xlink">
    <!-- Generator: Sketch 40.3 (33839) - http://www.bohemiancoding.com/sketch -->
    <title>logo</title>
    <desc>Created with Sketch.</desc>
    <defs></defs>
    <g id="Page-1" stroke="none" stroke-width="1" fill="none" fill-rule="evenodd">
        <g id="logo">
            <g id="Group">
                <g>
                    <g id="Shape" fill="#3483B2">
                        <path d="M25.3060596,62.5887057 C27.8600367,68.6754897 31.6320482,73.0835606 36.5136606,76.2628936 L36.5136606,62.5887057 L25.3060596,62.5887057 L25.3060596,62.5887057 Z"></path>
                        <path d="M36.5147133,76.4662782 C36.6231468,76.4715472 36.7336858,76.4704934 36.8421193,76.4747087 C36.732633,76.4051575 36.6231468,76.3334986 36.5147133,76.2628936 L36.5147133,76.4662782 L36.5147133,76.4662782 Z"></path>
                        <path d="M36.5147133,0.812484503 C31.6036239,4.01183982 27.8179266,8.45679395 25.2628968,14.6004835 L36.5147133,14.6004835 L36.5147133,0.812484503 L36.5147133,0.812484503 Z"></path>
                        <path d="M23.9943303,58.9056534 L36.5136606,58.9056534 L36.5136606,40.3333747 L21.4129817,40.3333747 C21.5361537,47.6636499 22.4109908,53.7925862 23.9943303,58.9056534 L23.9943303,58.9056534 Z"></path>
                        <path d="M21.4150872,36.6503223 L36.5147133,36.6503223 L36.5147133,18.282482 L23.9595894,18.282482 C22.4036216,23.3512894 21.5424702,29.4148897 21.4150872,36.6503223 L21.4150872,36.6503223 Z"></path>
                        <path d="M36.8421193,0.600669477 C36.7336858,0.604884701 36.6231468,0.603830895 36.5147133,0.609099926 L36.5147133,0.812484503 C36.6231468,0.740825688 36.7315803,0.670220679 36.8421193,0.600669477 L36.8421193,0.600669477 Z"></path>
                        <path d="M9.02419266,62.5887057 C14.250055,68.972663 21.5140459,73.6125713 29.8202615,75.5304984 C26.4146078,71.8959212 23.6795573,67.5942847 21.666695,62.5887057 L9.02419266,62.5887057 L9.02419266,62.5887057 Z"></path>
                        <path d="M20.323383,18.282482 L6.29651147,18.282482 C2.90875459,23.6474089 0.821146789,29.9154476 0.491635321,36.6503223 L17.577805,36.6503223 C17.7220321,29.787937 18.6505596,23.6748078 20.323383,18.282482 L20.323383,18.282482 Z"></path>
                        <path d="M17.5756995,40.3333747 L0.489529817,40.3333747 C0.806408257,47.1504463 2.92454587,53.4911976 6.37020413,58.9056534 L20.3581239,58.9056534 C18.6547706,53.4627449 17.7146628,47.2800645 17.5756995,40.3333747 L17.5756995,40.3333747 Z"></path>
                        <path d="M29.8202615,1.54487974 C21.4656193,3.47439871 14.1668876,8.15962063 8.93470872,14.6004835 L21.6182683,14.6004835 C23.6363945,9.54537565 26.388289,5.20685594 29.8202615,1.54487974 L29.8202615,1.54487974 Z"></path>
                    </g>
                    <g transform="translate(41.057339, 0.000000)" id="Shape" fill="#3483B2">
                        <path d="M36.4810252,14.1441855 L35.5482867,14.1441855 C33.4669954,6.60420283 28.589594,2.43850731 21.6309014,2.43850731 C15.6049472,2.43850731 11.4434174,5.52721299 10.081156,10.9848748 C9.3631789,13.5698611 9.00524312,19.0275229 9.00524312,25.9215224 C9.00524312,37.2678527 9.43581881,40.7148525 11.0854817,43.5148153 C13.0225459,46.8901562 16.8966743,48.9008182 21.4161399,48.9008182 C25.5060826,48.9008182 29.4507454,46.8184974 32.0331468,43.3714976 C33.3248739,41.5758121 34.1860252,39.9244979 35.5482867,36.3331267 L36.4810252,36.3331267 L36.4810252,49.6184602 L35.5482867,49.6184602 L33.1806468,46.0281428 C28.5180069,49.1874535 25.2902683,50.337156 21.2003257,50.337156 C9.9369289,50.337156 0.897997706,39.4934912 0.897997706,25.9215224 C0.897997706,11.9174932 10.0085161,1.0021696 21.6309014,1.0021696 C25.9356055,1.0021696 29.0201697,2.15081825 33.1806468,5.31118274 L35.5482867,1.72086536 L36.4810252,1.72086536 L36.4810252,14.1441855 L36.4810252,14.1441855 Z"></path>
                        <polygon points="48.530828 3.01283164 42.2890596 3.01283164 42.2890596 1.72086536 61.4438876 1.72086536 61.4438876 3.01283164 55.2021193 3.01283164 55.2021193 48.3264939 61.4438876 48.3264939 61.4438876 49.619514 42.2890596 49.619514 42.2890596 48.3264939 48.530828 48.3264939"></polygon>
                        <path d="M87.9858784,48.3264939 L95.1603853,48.3264939 L95.1603853,49.619514 L74.141133,49.619514 L74.141133,48.3264939 L81.3156399,48.3264939 L81.3156399,3.01283164 L77.8720872,3.01283164 C72.993633,3.01283164 71.2007959,3.94650384 68.9047431,7.68119266 C67.4698417,10.0512026 66.6802775,12.3495537 65.6759518,16.8008306 L64.7432133,16.657513 L65.3169633,1.72086536 L103.698206,1.72086536 L104.630945,16.657513 L103.698206,16.8008306 C100.542055,5.81384825 98.102828,3.01283164 91.574711,3.01283164 L87.9869312,3.01283164 L87.9869312,48.3264939 L87.9858784,48.3264939 Z"></path>
                        <polygon points="114.241521 3.01283164 108.000805 3.01283164 108.000805 1.72086536 127.15458 1.72086536 127.15458 3.01283164 120.913865 3.01283164 120.913865 48.3264939 127.15458 48.3264939 127.15458 49.619514 108.000805 49.619514 108.000805 48.3264939 114.241521 48.3264939"></polygon>
                    </g>
                    <g transform="translate(44.215596, 55.851723)" id="Shape" fill="#4F504F">
                        <path d="M5.99437156,19.1813786 L8.56098165,19.1813786 L8.56098165,19.6787751 L1.02748624,19.6787751 L1.02748624,19.1813786 L3.42776147,19.1813786 L3.42776147,1.74931813 L1.02748624,1.74931813 L1.02748624,1.25192165 L8.75468807,1.25192165 C11.0728486,1.25192165 12.618289,1.66606744 13.667883,2.60500868 C14.7164243,3.489152 15.2964908,4.76004215 15.2964908,6.08573023 C15.2964908,7.46727002 14.6069381,8.76555914 13.3646904,9.64970245 C12.3161491,10.4231961 10.8812477,10.7551451 8.75574083,10.7551451 L5.99542431,10.7551451 L5.99542431,19.1813786 L5.99437156,19.1813786 Z M8.58835321,10.2588024 C11.4034128,10.2588024 12.176133,9.31986115 12.176133,5.92133647 C12.176133,2.63346144 11.4034128,1.74931813 8.56098165,1.74931813 L5.99437156,1.74931813 L5.99437156,10.2577486 L8.58835321,10.2577486 L8.58835321,10.2588024 Z"></path>
                        <path d="M21.7761812,19.1813786 L24.3427913,19.1813786 L24.3427913,19.6787751 L16.8092959,19.6787751 L16.8092959,19.1813786 L19.2095711,19.1813786 L19.2095711,1.74931813 L16.8092959,1.74931813 L16.8092959,1.25192165 L24.3154197,1.25192165 C26.9651972,1.25192165 28.096906,1.47322093 29.1728188,2.2467146 C30.277156,3.02020828 30.8287982,4.12565088 30.8287982,5.53353583 C30.8287982,6.77702703 30.277156,7.85401686 29.1454472,8.70970741 C28.1516491,9.45580213 27.2136468,9.75929829 25.1165642,10.0079965 C27.1304794,10.3673444 27.986367,10.7256385 28.8412018,11.6097818 C29.7518326,12.548723 30.2213601,13.7922142 30.2213601,15.173754 L30.2213601,16.6933424 C30.2213601,18.5438259 30.6077202,19.2351227 31.6562615,19.2351227 C31.9605069,19.2351227 32.2352752,19.1518721 32.7879702,18.8757749 L32.9258807,19.3447186 C32.2089564,19.7040665 31.7668005,19.8147161 31.0772477,19.8147161 C28.593805,19.8147161 27.2957615,18.1844781 27.2957615,15.1179023 L27.2957615,13.7648153 C27.2957615,11.3052318 26.0545665,10.1460451 23.4595321,10.1460451 L21.7761812,10.1460451 L21.7761812,19.1813786 L21.7761812,19.1813786 Z M23.5700711,9.65075626 C26.5504128,9.65075626 27.9579427,8.38091991 27.9579427,5.701091 C27.9579427,2.93801141 26.6883234,1.75037193 23.7353532,1.75037193 L21.7761812,1.75037193 L21.7761812,9.65075626 L23.5700711,9.65075626 L23.5700711,9.65075626 Z"></path>
                        <path d="M49.7825505,10.4516489 C49.7825505,15.8387057 46.3884771,19.9548723 41.9721812,19.9548723 C37.5285138,19.9548723 34.1344404,15.8387057 34.1344404,10.4516489 C34.1344404,5.09304488 37.5285138,0.976878254 41.9721812,0.976878254 C46.3884771,0.976878254 49.7825505,5.09304488 49.7825505,10.4516489 L49.7825505,10.4516489 Z M37.5853624,4.81694768 C37.3095413,5.8391396 37.2537454,6.94352839 37.2537454,10.4801017 C37.2537454,14.65212 37.3369128,15.7291098 37.8327592,16.8619514 C38.4959931,18.4363377 40.0403807,19.4037317 41.9732339,19.4037317 C44.2082271,19.4037317 45.8084106,18.1886933 46.3337339,16.0884577 C46.609555,15.0936648 46.6642982,13.9882222 46.6642982,10.4527027 C46.6642982,6.28173816 46.5537592,5.20369452 46.0852844,4.07190677 C45.4231032,2.49646665 43.8776628,1.53012646 41.9732339,1.53012646 C39.7098165,1.52907265 38.109633,2.74411108 37.5853624,4.81694768 L37.5853624,4.81694768 Z"></path>
                        <path d="M65.7022706,6.66743119 L65.3443349,6.66743119 C64.4884472,3.29735929 62.6945573,1.52907265 60.0732041,1.52907265 C58.0582362,1.52907265 56.6233349,2.49541284 56.0432683,4.26369948 C55.6853326,5.36914208 55.4642546,7.90986858 55.4642546,10.7835978 C55.4642546,13.9597694 55.6295367,15.7839078 55.9611537,16.8060997 C56.5685917,18.5185346 57.838211,19.4026779 59.6594725,19.4026779 C61.4807339,19.4026779 62.7503532,18.4078849 63.2198807,16.6680511 C63.3851628,16.032606 63.4409587,15.342363 63.4409587,13.8227746 L60.571156,13.8227746 L60.571156,13.3253781 L68.2983578,13.3253781 L68.2983578,13.8227746 L66.4497248,13.8227746 C66.1454794,15.9493553 65.7864908,16.8882966 64.9042844,17.8556906 C63.6630894,19.2098314 61.9513142,19.9559261 59.9921422,19.9559261 C55.6316422,19.9559261 52.3481078,15.9504091 52.3481078,10.5907513 C52.3481078,5.17629556 55.7979771,0.977932061 60.2679633,0.977932061 C61.7028647,0.977932061 62.9714312,1.42053062 64.4073853,2.41532358 L65.3453876,1.25508306 L65.7033234,1.25508306 L65.7033234,6.66743119 L65.7022706,6.66743119 Z"></path>
                        <path d="M74.4464312,19.1813786 L77.0130413,19.1813786 L77.0130413,19.6787751 L69.4795459,19.6787751 L69.4795459,19.1813786 L71.8798211,19.1813786 L71.8798211,1.74931813 L69.4795459,1.74931813 L69.4795459,1.25192165 L76.9856697,1.25192165 C79.6354472,1.25192165 80.767156,1.47322093 81.8430688,2.2467146 C82.947406,3.02020828 83.4990482,4.12565088 83.4990482,5.53353583 C83.4990482,6.77702703 82.947406,7.85401686 81.8156972,8.70970741 C80.8218991,9.45580213 79.8838968,9.75929829 77.7868142,10.0079965 C79.8007294,10.3673444 80.656617,10.7256385 81.5114518,11.6097818 C82.4220826,12.548723 82.8916101,13.7922142 82.8916101,15.173754 L82.8916101,16.6933424 C82.8916101,18.5438259 83.2779702,19.2351227 84.3265115,19.2351227 C84.6307569,19.2351227 84.9055252,19.1518721 85.4582202,18.8757749 L85.5961307,19.3447186 C84.8792064,19.7040665 84.4370505,19.8147161 83.7474977,19.8147161 C81.264055,19.8147161 79.9660115,18.1844781 79.9660115,15.1179023 L79.9660115,13.7648153 C79.9660115,11.3052318 78.7248165,10.1460451 76.1297821,10.1460451 L74.4464312,10.1460451 L74.4464312,19.1813786 L74.4464312,19.1813786 Z M76.2403211,9.65075626 C79.2206628,9.65075626 80.6281927,8.38091991 80.6281927,5.701091 C80.6281927,2.93801141 79.3596261,1.75037193 76.4056032,1.75037193 L74.4464312,1.75037193 L74.4464312,9.65075626 L76.2403211,9.65075626 L76.2403211,9.65075626 Z"></path>
                        <path d="M90.5598578,13.7669229 L88.7112248,19.1813786 L91.1399243,19.1813786 L91.1399243,19.6787751 L86.2551537,19.6787751 L86.2551537,19.1813786 L88.021672,19.1813786 L94.2866009,1.25297545 L95.0319495,1.25297545 L101.0758,19.1813786 L103.173936,19.1813786 L103.173936,19.6787751 L95.6667592,19.6787751 L95.6667592,19.1813786 L98.2881124,19.1813786 L96.4121078,13.7669229 L90.5598578,13.7669229 L90.5598578,13.7669229 Z M93.512828,5.12044384 L90.7525115,13.2695264 L96.2447202,13.2695264 L93.512828,5.12044384 L93.512828,5.12044384 Z"></path>
                        <polygon points="106.728028 1.75037193 106.728028 19.1824324 109.128303 19.1824324 109.128303 19.6798289 103.884544 19.6798289 103.884544 19.1824324 106.092165 19.1824324 106.092165 1.75037193 103.884544 1.75037193 103.884544 1.25297545 109.404124 1.25297545 113.654085 15.092611 117.931417 1.25297545 123.313087 1.25297545 123.313087 1.75037193 120.912812 1.75037193 120.912812 19.1824324 123.313087 19.1824324 123.313087 19.6798289 115.944874 19.6798289 115.944874 19.1824324 118.346202 19.1824324 118.346202 1.88842053 112.826622 19.6787751 112.302351 19.6787751"></polygon>
                    </g>
                </g>
            </g>
        </g>
    </g>
</svg>