<svg width="200" height="33" viewBox="0 0 200 33" fill="none" xmlns="http://www.w3.org/2000/svg">
<g clip-path="url(#clip0)">
<path d="M42.1741 27.1059H46.2191V19.7108H50.5004C55.6714 19.7108 58.382 16.6666 58.382 12.3992C58.382 8.13174 55.6019 5.14314 50.5004 5.14314H42.1602L42.1741 27.1059ZM46.2191 16.4442V8.52095H49.9305C52.9608 8.52095 54.3092 10.1195 54.3092 12.4548C54.3092 14.7901 52.9191 16.4442 49.9583 16.4442H46.2191ZM65.6798 5.19874H61.7876V27.1059H65.7493L65.6798 5.19874ZM74.5761 27.4395C75.5625 27.5374 76.5564 27.3513 77.4405 26.9031C78.3247 26.4549 79.0623 25.7632 79.5663 24.9096H79.6914V27.1615H83.4863V16.1106C83.4863 11.7737 79.8721 10.467 76.675 10.467C73.1443 10.467 70.4337 12.01 69.5719 14.9986L73.2694 15.5129C73.5394 14.8409 74.02 14.2746 74.6389 13.8987C75.2579 13.5228 75.9821 13.3576 76.7028 13.4278C78.5377 13.4278 79.4829 14.3453 79.4829 15.9577C79.4829 17.0697 78.2875 17.1253 75.3128 17.4312C72.0601 17.7787 68.9464 18.7239 68.9464 22.4214C69.0298 25.7297 71.4346 27.4395 74.6317 27.4395H74.5761ZM75.6047 24.6594C73.9505 24.6594 72.8246 23.9227 72.8246 22.5048C72.8246 21.087 74.2146 20.392 75.9105 20.1556C77.1585 20.0744 78.3867 19.8026 79.5524 19.3494V21.2816C79.5248 21.7588 79.401 22.2256 79.1883 22.6537C78.9756 23.0818 78.6786 23.4625 78.315 23.7729C77.9514 24.0832 77.5288 24.3168 77.0726 24.4596C76.6163 24.6024 76.136 24.6515 75.6603 24.6038L75.6047 24.6594ZM87.4062 27.1754H91.3539V10.6894H87.4618L87.4062 27.1754ZM89.394 8.40975C89.6915 8.43055 89.9902 8.39054 90.2717 8.29214C90.5533 8.19374 90.8119 8.03902 91.0317 7.83742C91.2515 7.63581 91.4279 7.39155 91.5503 7.11952C91.6726 6.84749 91.7382 6.5534 91.7431 6.25517C91.6982 5.67951 91.4378 5.14198 91.014 4.74989C90.5901 4.3578 90.0339 4.14001 89.4565 4.14001C88.8791 4.14001 88.3229 4.3578 87.8991 4.74989C87.4752 5.14198 87.2148 5.67951 87.1699 6.25517C87.1952 6.83535 87.4492 7.3819 87.8764 7.77525C88.3037 8.16861 88.8693 8.37675 89.4496 8.35415L89.394 8.40975ZM99.3745 17.5424C99.3227 17.0487 99.3795 16.5497 99.5408 16.0804C99.7022 15.611 99.9641 15.1825 100.308 14.825C100.653 14.4675 101.071 14.1895 101.534 14.0106C101.997 13.8317 102.493 13.7561 102.989 13.7892C103.445 13.7631 103.902 13.8378 104.326 14.0081C104.75 14.1783 105.132 14.4399 105.444 14.7743C105.756 15.1086 105.99 15.5076 106.13 15.9428C106.27 16.3779 106.313 16.8386 106.255 17.2921V27.1476H110.203V16.6527C110.203 12.7189 107.923 10.467 104.462 10.467C103.42 10.3874 102.378 10.6336 101.482 11.1714C100.585 11.7093 99.8782 12.5123 99.4579 13.4695H99.2633V10.6894H95.4824V27.1059H99.4301L99.3745 17.5424ZM115.138 27.1615L117.529 20.5588H126.925L129.316 27.1615H131.457L123.381 5.21264H121.184L113.053 27.1059L115.138 27.1615ZM118.182 18.8212L122.213 7.81203H122.324L126.286 18.7239L118.182 18.8212ZM140.923 27.5646C142.027 27.5969 143.114 27.2888 144.036 26.682C144.959 26.0752 145.673 25.1992 146.08 24.1729H146.316V27.2171H148.221V5.21264H146.261V13.7892H146.08C145.681 12.7679 144.974 11.8958 144.058 11.2932C143.141 10.6907 142.061 10.3874 140.965 10.4253C136.795 10.4253 134.014 13.8448 134.014 18.9046C134.014 23.9644 136.864 27.4534 140.979 27.4534L140.923 27.5646ZM141.159 25.827C137.823 25.827 135.988 22.8523 135.988 19.0297C135.988 15.2071 137.795 12.3158 141.159 12.3158C144.523 12.3158 146.289 15.0959 146.289 19.0297C146.289 22.9635 144.468 25.7158 141.201 25.7158L141.159 25.827ZM153.753 27.2171H155.685V16.5693C155.649 16.0038 155.73 15.4367 155.924 14.9042C156.118 14.3718 156.421 13.8855 156.813 13.4763C157.205 13.0672 157.678 12.744 158.202 12.5275C158.726 12.311 159.289 12.2057 159.855 12.2185C160.349 12.1863 160.843 12.2613 161.304 12.4386C161.766 12.6158 162.183 12.8909 162.528 13.245C162.873 13.599 163.137 14.0237 163.302 14.4896C163.467 14.9555 163.529 15.4516 163.483 15.9438V27.0642H165.416V16.2913C165.371 15.7504 165.443 15.2062 165.627 14.6956C165.811 14.185 166.103 13.7201 166.483 13.3324C166.862 12.9446 167.321 12.6432 167.828 12.4486C168.335 12.254 168.877 12.1708 169.419 12.2046C169.93 12.1675 170.444 12.2445 170.922 12.43C171.4 12.6156 171.831 12.9051 172.183 13.2775C172.536 13.65 172.801 14.0961 172.96 14.5837C173.119 15.0712 173.168 15.588 173.103 16.0967V27.1059H175.049V16.1106C175.049 12.427 173.117 10.4809 170.003 10.4809C168.969 10.4091 167.938 10.6574 167.05 11.1921C166.162 11.7269 165.46 12.522 165.04 13.4695H164.901C164.523 12.5996 163.905 11.8556 163.119 11.3246C162.333 10.7936 161.411 10.4976 160.463 10.4714C159.515 10.4451 158.579 10.6896 157.765 11.1763C156.951 11.663 156.292 12.3717 155.866 13.2193H155.685V10.6894H153.795L153.753 27.2171ZM180.164 27.2171H182.124V10.6894H180.164V27.2171ZM181.151 7.96493C181.339 7.97436 181.528 7.94538 181.704 7.87976C181.881 7.81413 182.043 7.71324 182.179 7.58321C182.316 7.45318 182.424 7.29673 182.498 7.12339C182.573 6.95005 182.611 6.76343 182.611 6.57488C182.611 6.18779 182.457 5.81655 182.183 5.54283C181.909 5.26911 181.538 5.11533 181.151 5.11533C180.764 5.11533 180.393 5.26911 180.119 5.54283C179.845 5.81655 179.691 6.18779 179.691 6.57488C179.705 6.75892 179.756 6.93832 179.84 7.10264C179.924 7.26696 180.04 7.4129 180.181 7.53194C180.322 7.65098 180.485 7.74074 180.661 7.79599C180.837 7.85124 181.023 7.87087 181.207 7.85373L181.151 7.96493ZM189.199 16.9446C189.159 16.3324 189.249 15.7185 189.463 15.1435C189.677 14.5684 190.011 14.0452 190.441 13.608C190.872 13.1709 191.39 12.8298 191.962 12.607C192.534 12.3843 193.146 12.2851 193.759 12.3158C194.331 12.2916 194.901 12.39 195.432 12.6044C195.963 12.8188 196.442 13.1443 196.837 13.5589C197.232 13.9736 197.534 14.4679 197.722 15.0086C197.91 15.5494 197.981 16.1242 197.929 16.6944V27.2171H199.875V16.472C199.875 12.5799 197.567 10.467 194.19 10.467C193.184 10.3892 192.178 10.6119 191.3 11.1069C190.421 11.6019 189.709 12.3468 189.255 13.2471H189.074V10.6894H187.184V27.1059H189.13L189.199 16.9446Z" fill="white"/>
<path d="M36.3642 14.1507L29.1915 2.09901C28.8271 1.46208 28.301 0.932617 27.6664 0.564076C27.0318 0.195535 26.3112 0.000971685 25.5774 3.59268e-05H11.3155C10.5746 -0.00641275 9.84541 0.184648 9.20287 0.553561C8.56033 0.922474 8.02767 1.45592 7.65971 2.09901L0.528768 14.1507C0.180817 14.7906 -0.00146484 15.5074 -0.00146484 16.2358C-0.00146484 16.9642 0.180817 17.681 0.528768 18.3209L7.65971 30.3726C8.02767 31.0157 8.56033 31.5491 9.20287 31.918C9.84541 32.2869 10.5746 32.478 11.3155 32.4715H25.5774C26.3099 32.472 27.0296 32.2795 27.664 31.9135C28.2985 31.5475 28.8253 31.0208 29.1915 30.3865L36.3225 18.3348C36.6781 17.6962 36.8682 16.9789 36.8755 16.248C36.8827 15.5172 36.707 14.7962 36.3642 14.1507V14.1507ZM33.5841 16.764L26.4114 28.8157C26.3155 28.9897 26.1713 29.1321 25.9961 29.2258C25.821 29.3196 25.6225 29.3606 25.4245 29.3439H11.3155C11.1193 29.3496 10.9249 29.3038 10.7518 29.2112C10.5786 29.1185 10.4328 28.9822 10.3286 28.8157L3.21156 16.764C3.12236 16.5873 3.0759 16.3921 3.0759 16.1941C3.0759 15.9961 3.12236 15.8009 3.21156 15.6242L10.3425 3.58636C10.4384 3.41242 10.5827 3.26998 10.7578 3.17624C10.933 3.08251 11.1315 3.04149 11.3294 3.05814H25.5774C25.7737 3.05248 25.9681 3.09825 26.1412 3.19091C26.3143 3.28357 26.4602 3.4199 26.5644 3.58636L33.6953 15.6381C33.789 15.8152 33.8297 16.0157 33.8124 16.2154C33.7952 16.4151 33.7207 16.6055 33.598 16.764H33.5841Z" fill="#2F80ED"/>
<path d="M24.9376 8.66001H22.0741C20.9541 8.65242 19.8761 9.08541 19.0726 9.86556C18.269 10.6457 17.8044 11.7105 17.7788 12.8302V15.8744H14.679C13.5591 15.8668 12.4811 16.2998 11.6775 17.0799C10.874 17.8601 10.4093 18.9248 10.3838 20.0445V22.8246C10.3911 23.4157 10.632 23.9799 11.054 24.394C11.4759 24.8081 12.0445 25.0385 12.6357 25.0348H15.4158C16.5357 25.0424 17.6137 24.6094 18.4173 23.8292C19.2208 23.0491 19.6855 21.9843 19.711 20.8646V17.876H22.8247C23.9447 17.8836 25.0227 17.4506 25.8262 16.6705C26.6298 15.8903 27.0944 14.8256 27.12 13.7059V10.9258C27.1255 10.6337 27.0734 10.3434 26.9667 10.0714C26.86 9.79948 26.7008 9.55121 26.4981 9.3408C26.2955 9.13039 26.0534 8.96197 25.7856 8.84516C25.5178 8.72835 25.2297 8.66544 24.9376 8.66001V8.66001ZM17.7788 20.8924C17.7752 21.19 17.713 21.4839 17.5958 21.7574C17.4785 22.0309 17.3086 22.2787 17.0956 22.4865C16.8826 22.6943 16.6308 22.8581 16.3545 22.9686C16.0782 23.0791 15.7828 23.1341 15.4853 23.1304H12.7052C12.6411 23.1305 12.5795 23.1061 12.533 23.0621C12.4864 23.0181 12.4585 22.958 12.455 22.8941V20.114C12.4586 19.8164 12.5208 19.5225 12.638 19.249C12.7553 18.9755 12.9252 18.7278 13.1382 18.5199C13.3512 18.3121 13.603 18.1483 13.8793 18.0378C14.1556 17.9273 14.451 17.8724 14.7485 17.876H17.8483L17.7788 20.8924ZM25.1878 13.6364C25.1805 14.2386 24.9351 14.8134 24.5054 15.2353C24.0757 15.6572 23.4964 15.892 22.8942 15.8883H19.7805V12.8441C19.7823 12.5453 19.8432 12.2499 19.9596 11.9748C20.076 11.6997 20.2457 11.4503 20.4589 11.241C20.672 11.0317 20.9245 10.8666 21.2017 10.7553C21.4789 10.6439 21.7754 10.5885 22.0741 10.5922H24.9376C25.0039 10.5922 25.0676 10.6185 25.1145 10.6655C25.1614 10.7124 25.1878 10.776 25.1878 10.8424V13.6364Z" fill="#2F80ED" stroke="#2F80ED" stroke-width="0.5"/>
</g>
<defs>
<clipPath id="clip0">
<rect width="200" height="32.4715" fill="white"/>
</clipPath>
</defs>
</svg>
